<svg width="321" height="96" viewBox="0 0 321 96" fill="none" xmlns="http://www.w3.org/2000/svg">
<rect width="320.296" height="96" rx="10" fill="black"/>
<path d="M67.4896 50.0351C67.5212 47.582 68.1728 45.1767 69.3837 43.0431C70.5947 40.9095 72.3257 39.1169 74.4156 37.8321C73.0879 35.9359 71.3364 34.3755 69.3002 33.2747C67.264 32.1738 64.9991 31.563 62.6855 31.4906C57.7502 30.9726 52.9656 34.4438 50.4506 34.4438C47.887 34.4438 44.0148 31.542 39.8452 31.6278C37.1481 31.715 34.5196 32.4992 32.2158 33.9043C29.9119 35.3093 28.0114 37.2871 26.6992 39.6451C21.0151 49.4862 25.2549 63.9492 30.6998 71.904C33.4239 75.7992 36.6077 80.1503 40.7736 79.996C44.8502 79.8269 46.3728 77.3965 51.2936 77.3965C56.1687 77.3965 57.5971 79.996 61.8476 79.8979C66.222 79.8269 68.978 75.9854 71.6066 72.0532C73.564 69.2778 75.0701 66.2102 76.0693 62.9643C73.5279 61.8894 71.3591 60.0902 69.8334 57.791C68.3077 55.4918 67.4926 52.7944 67.4896 50.0351Z" fill="white"/>
<path d="M59.4613 26.259C61.8464 23.3958 63.0214 19.7156 62.7369 16C59.093 16.3827 55.7271 18.1243 53.3098 20.8776C52.1279 22.2227 51.2227 23.7876 50.6459 25.4827C50.0691 27.1778 49.8321 28.97 49.9484 30.7568C51.771 30.7756 53.5741 30.3805 55.2219 29.6014C56.8697 28.8223 58.3192 27.6795 59.4613 26.259Z" fill="white"/>
<path d="M120.656 63.7752H108.282L105.311 72.3491H100.069L111.79 40.6278H117.236L128.956 72.3491H123.626L120.656 63.7752ZM109.564 59.8187H119.372L114.537 45.9039H114.402L109.564 59.8187Z" fill="white"/>
<path d="M154.269 60.7866C154.269 67.9735 150.332 72.591 144.391 72.591C142.887 72.6679 141.39 72.3291 140.073 71.6135C138.756 70.8979 137.672 69.8344 136.944 68.5447H136.832V79.9999H131.974V49.2216H136.676V53.0683H136.766C137.526 51.7848 138.629 50.7267 139.956 50.0068C141.283 49.2868 142.785 48.9318 144.302 48.9796C150.309 48.9797 154.269 53.6196 154.269 60.7866ZM149.275 60.7866C149.275 56.1042 146.799 53.0259 143.02 53.0259C139.308 53.0259 136.812 56.1691 136.812 60.7866C136.812 65.4465 139.308 68.5672 143.02 68.5672C146.799 68.5672 149.275 65.5113 149.275 60.7866Z" fill="white"/>
<path d="M180.319 60.7867C180.319 67.9736 176.383 72.5911 170.442 72.5911C168.937 72.668 167.44 72.3293 166.123 71.6137C164.806 70.8981 163.722 69.8346 162.995 68.5449H162.883V80H158.024V49.2218H162.727V53.0684H162.816C163.577 51.7849 164.679 50.7269 166.006 50.0069C167.333 49.287 168.835 48.932 170.353 48.9798C176.36 48.9798 180.319 53.6197 180.319 60.7867ZM175.326 60.7867C175.326 56.1044 172.849 53.026 169.071 53.026C165.359 53.026 162.862 56.1692 162.862 60.7867C162.862 65.4466 165.359 68.5674 169.071 68.5674C172.849 68.5674 175.326 65.5115 175.326 60.7867H175.326Z" fill="white"/>
<path d="M197.537 63.5108C197.897 66.6565 201.024 68.7219 205.298 68.7219C209.393 68.7219 212.339 66.6564 212.339 63.82C212.339 61.3579 210.562 59.8836 206.355 58.8733L202.147 57.8829C196.186 56.4759 193.419 53.7518 193.419 49.3314C193.419 43.8583 198.3 40.0989 205.231 40.0989C212.091 40.0989 216.794 43.8583 216.952 49.3314H212.048C211.754 46.1658 209.076 44.2549 205.162 44.2549C201.249 44.2549 198.571 46.1883 198.571 49.0022C198.571 51.2448 200.281 52.5644 204.465 53.5746L208.042 54.4328C214.703 55.972 217.47 58.5863 217.47 63.2262C217.47 69.1608 212.632 72.8778 204.938 72.8778C197.738 72.8778 192.877 69.2481 192.563 63.5106L197.537 63.5108Z" fill="white"/>
<path d="M227.955 43.7486V49.2217H232.456V52.9811H227.955V65.7309C227.955 67.7116 228.857 68.6346 230.835 68.6346C231.369 68.6255 231.903 68.5889 232.433 68.5248V72.2617C231.544 72.4241 230.64 72.4977 229.735 72.4812C224.943 72.4812 223.074 70.7225 223.074 66.2373V52.9811H219.633V49.2217H223.074V43.7486H227.955Z" fill="white"/>
<path d="M235.063 60.7867C235.063 53.5099 239.449 48.9373 246.288 48.9373C253.151 48.9373 257.516 53.5098 257.516 60.7867C257.516 68.0833 253.174 72.636 246.288 72.636C239.405 72.636 235.063 68.0833 235.063 60.7867ZM252.566 60.7867C252.566 55.795 250.225 52.8489 246.288 52.8489C242.352 52.8489 240.013 55.8174 240.013 60.7867C240.013 65.7983 242.352 68.722 246.288 68.722C250.225 68.722 252.566 65.7983 252.566 60.7867H252.566Z" fill="white"/>
<path d="M261.522 49.2217H266.155V53.1582H266.268C266.581 51.9287 267.318 50.8422 268.355 50.0813C269.392 49.3204 270.665 48.9314 271.961 48.9797C272.521 48.9778 273.079 49.0372 273.625 49.1569V53.5972C272.919 53.3862 272.181 53.2893 271.443 53.3104C270.737 53.2824 270.033 53.404 269.38 53.6668C268.727 53.9296 268.14 54.3274 267.659 54.8329C267.178 55.3384 266.814 55.9397 266.594 56.5953C266.373 57.251 266.3 57.9455 266.38 58.6313V72.3491H261.522L261.522 49.2217Z" fill="white"/>
<path d="M296.025 65.5563C295.372 69.7547 291.187 72.636 285.834 72.636C278.948 72.636 274.675 68.1282 274.675 60.8964C274.675 53.6422 278.971 48.9373 285.629 48.9373C292.178 48.9373 296.296 53.3328 296.296 60.3451V61.9716H279.579V62.2585C279.502 63.1096 279.611 63.9671 279.899 64.7739C280.187 65.5807 280.647 66.3183 281.25 66.9379C281.852 67.5575 282.582 68.0448 283.392 68.3674C284.201 68.6901 285.072 68.8407 285.946 68.8092C287.094 68.9144 288.246 68.6545 289.231 68.0684C290.216 67.4823 290.981 66.6013 291.412 65.5563L296.025 65.5563ZM279.602 58.6538H291.435C291.479 57.8885 291.36 57.1226 291.086 56.4043C290.813 55.6859 290.39 55.0306 289.845 54.4795C289.3 53.9283 288.644 53.4932 287.918 53.2014C287.193 52.9097 286.414 52.7675 285.629 52.784C284.838 52.7794 284.054 52.9279 283.322 53.221C282.59 53.5141 281.924 53.946 281.364 54.4917C280.804 55.0374 280.359 55.6862 280.057 56.4006C279.755 57.1149 279.6 57.8807 279.602 58.6538V58.6538Z" fill="white"/>
<path d="M108.955 16.7511C109.973 16.6796 110.996 16.83 111.947 17.1913C112.899 17.5526 113.757 18.1158 114.459 18.8403C115.162 19.5648 115.69 20.4325 116.008 21.3809C116.325 22.3293 116.423 23.3347 116.295 24.3246C116.295 29.1941 113.601 31.9931 108.955 31.9931H103.32V16.7511H108.955ZM105.743 29.8376H108.684C109.412 29.8801 110.14 29.7635 110.816 29.4962C111.492 29.229 112.099 28.8179 112.591 28.2928C113.084 27.7677 113.451 27.1418 113.665 26.4607C113.879 25.7797 113.935 25.0605 113.828 24.3557C113.927 23.6536 113.866 22.939 113.648 22.2629C113.431 21.5868 113.063 20.9661 112.572 20.4452C112.08 19.9242 111.477 19.516 110.804 19.2497C110.132 18.9835 109.408 18.8657 108.684 18.905H105.743V29.8376Z" fill="white"/>
<path d="M119.031 26.2367C118.957 25.4807 119.046 24.7181 119.291 23.9975C119.537 23.277 119.933 22.6145 120.456 22.0526C120.979 21.4906 121.616 21.0417 122.327 20.7344C123.037 20.4272 123.806 20.2685 124.583 20.2685C125.36 20.2685 126.129 20.4272 126.839 20.7344C127.55 21.0417 128.187 21.4906 128.71 22.0526C129.232 22.6145 129.629 23.277 129.875 23.9975C130.12 24.7181 130.208 25.4807 130.134 26.2367C130.21 26.9933 130.122 27.7571 129.878 28.4788C129.633 29.2005 129.236 29.8642 128.714 30.4272C128.191 30.9903 127.553 31.4402 126.842 31.7481C126.13 32.056 125.361 32.215 124.583 32.215C123.805 32.215 123.035 32.056 122.324 31.7481C121.613 31.4402 120.975 30.9903 120.452 30.4272C119.929 29.8642 119.533 29.2005 119.288 28.4788C119.043 27.7571 118.956 26.9933 119.031 26.2367ZM127.745 26.2367C127.745 23.7433 126.598 22.2852 124.587 22.2852C122.567 22.2852 121.431 23.7433 121.431 26.2367C121.431 28.75 122.567 30.1968 124.587 30.1968C126.598 30.1968 127.745 28.74 127.745 26.2367H127.745Z" fill="white"/>
<path d="M144.893 31.9929H142.483L140.05 23.5212H139.866L137.444 31.9929H135.057L131.812 20.4903H134.168L136.277 29.2674H136.45L138.871 20.4903H141.099L143.52 29.2674H143.703L145.802 20.4903H148.125L144.893 31.9929Z" fill="white"/>
<path d="M150.854 20.4903H153.091V22.3175H153.264C153.559 21.6612 154.056 21.1111 154.685 20.7437C155.315 20.3764 156.046 20.2102 156.777 20.2682C157.35 20.2261 157.925 20.3105 158.46 20.5151C158.995 20.7197 159.476 21.0393 159.867 21.4502C160.258 21.861 160.55 22.3527 160.721 22.8887C160.891 23.4246 160.936 23.9912 160.852 24.5464V31.9927H158.529V25.1165C158.529 23.268 157.707 22.3487 155.988 22.3487C155.599 22.331 155.211 22.3957 154.85 22.5383C154.489 22.6809 154.164 22.8981 153.897 23.175C153.63 23.4519 153.428 23.7818 153.304 24.1424C153.179 24.5029 153.136 24.8854 153.178 25.2636V31.9928H150.854L150.854 20.4903Z" fill="white"/>
<path d="M164.554 16H166.877V31.9928H164.554V16Z" fill="white"/>
<path d="M170.106 26.2367C170.032 25.4807 170.121 24.718 170.366 23.9974C170.612 23.2769 171.008 22.6144 171.531 22.0524C172.054 21.4905 172.691 21.0415 173.402 20.7342C174.113 20.427 174.881 20.2683 175.658 20.2683C176.435 20.2683 177.204 20.427 177.915 20.7342C178.626 21.0415 179.263 21.4905 179.785 22.0524C180.308 22.6144 180.705 23.2769 180.95 23.9974C181.196 24.718 181.284 25.4807 181.21 26.2367C181.286 26.9934 181.198 27.7571 180.953 28.4788C180.709 29.2005 180.312 29.8642 179.789 30.4272C179.266 30.9903 178.629 31.4402 177.917 31.7481C177.206 32.056 176.436 32.215 175.658 32.215C174.88 32.215 174.111 32.056 173.399 31.7481C172.688 31.4402 172.05 30.9903 171.527 30.4272C171.004 29.8642 170.608 29.2005 170.363 28.4788C170.118 27.7571 170.031 26.9934 170.106 26.2367ZM178.819 26.2367C178.819 23.7433 177.673 22.2853 175.661 22.2853C173.642 22.2853 172.506 23.7434 172.506 26.2367C172.506 28.75 173.642 30.1969 175.661 30.1969C177.673 30.1968 178.82 28.74 178.82 26.2367H178.819Z" fill="white"/>
<path d="M183.656 28.7399C183.656 26.6694 185.234 25.4757 188.034 25.3061L191.223 25.1265V24.1336C191.223 22.9188 190.401 22.2328 188.813 22.2328C187.516 22.2328 186.618 22.698 186.36 23.5112H184.111C184.348 21.5355 186.25 20.2683 188.92 20.2683C191.872 20.2683 193.536 21.7039 193.536 24.1336V31.9929H191.3V30.3764H191.116C190.743 30.9562 190.219 31.4289 189.598 31.7462C188.977 32.0635 188.28 32.214 187.58 32.1824C187.086 32.2326 186.586 32.1811 186.114 32.0311C185.641 31.8812 185.206 31.6362 184.836 31.3118C184.467 30.9875 184.171 30.591 183.967 30.1481C183.764 29.7051 183.658 29.2254 183.656 28.7399ZM191.223 27.757V26.7954L188.348 26.975C186.727 27.081 185.992 27.6198 185.992 28.6339C185.992 29.6691 186.911 30.2716 188.175 30.2716C188.545 30.3082 188.919 30.2716 189.275 30.1641C189.63 30.0566 189.96 29.8803 190.245 29.6457C190.529 29.4111 190.762 29.123 190.93 28.7985C191.098 28.4741 191.198 28.1199 191.223 27.757Z" fill="white"/>
<path d="M196.589 26.2366C196.589 22.602 198.502 20.2995 201.476 20.2995C202.212 20.2663 202.942 20.4385 203.581 20.7959C204.22 21.1532 204.742 21.681 205.086 22.3175H205.259V16H207.583V31.9928H205.356V30.1755H205.173C204.802 30.8077 204.262 31.3289 203.611 31.6827C202.959 32.0364 202.221 32.2092 201.476 32.1824C198.481 32.1825 196.589 29.8799 196.589 26.2366ZM198.989 26.2366C198.989 28.6763 200.166 30.1444 202.135 30.1444C204.093 30.1444 205.303 28.6551 205.303 26.2466C205.303 23.8493 204.08 22.3388 202.135 22.3388C200.179 22.3388 198.989 23.8168 198.989 26.2366H198.989Z" fill="white"/>
<path d="M217.195 26.2367C217.121 25.4807 217.209 24.7181 217.454 23.9975C217.7 23.277 218.096 22.6145 218.619 22.0526C219.142 21.4906 219.779 21.0417 220.49 20.7344C221.2 20.4272 221.969 20.2685 222.746 20.2685C223.523 20.2685 224.292 20.4272 225.002 20.7344C225.713 21.0417 226.35 21.4906 226.873 22.0526C227.396 22.6145 227.792 23.277 228.038 23.9975C228.283 24.7181 228.371 25.4807 228.297 26.2367C228.373 26.9933 228.285 27.7571 228.041 28.4788C227.796 29.2005 227.4 29.8642 226.877 30.4272C226.354 30.9903 225.716 31.4402 225.005 31.7481C224.293 32.056 223.524 32.215 222.746 32.215C221.968 32.215 221.198 32.056 220.487 31.7481C219.776 31.4402 219.138 30.9903 218.615 30.4272C218.092 29.8642 217.696 29.2005 217.451 28.4788C217.207 27.7571 217.119 26.9933 217.195 26.2367ZM225.908 26.2367C225.908 23.7433 224.762 22.2852 222.75 22.2852C220.73 22.2852 219.594 23.7433 219.594 26.2367C219.594 28.75 220.73 30.1968 222.75 30.1968C224.762 30.1968 225.908 28.74 225.908 26.2367Z" fill="white"/>
<path d="M231.415 20.4903H233.651V22.3175H233.825C234.119 21.6612 234.616 21.1111 235.245 20.7437C235.875 20.3764 236.606 20.2102 237.337 20.2682C237.91 20.2261 238.485 20.3105 239.02 20.5151C239.555 20.7197 240.036 21.0393 240.427 21.4502C240.819 21.861 241.11 22.3527 241.281 22.8887C241.451 23.4246 241.496 23.9912 241.412 24.5464V31.9927H239.089V25.1165C239.089 23.268 238.267 22.3487 236.549 22.3487C236.16 22.331 235.771 22.3957 235.411 22.5383C235.05 22.6809 234.725 22.8981 234.458 23.175C234.191 23.4519 233.988 23.7818 233.864 24.1424C233.74 24.5029 233.697 24.8854 233.738 25.2636V31.9928H231.415V20.4903Z" fill="white"/>
<path d="M254.539 17.6265V20.5427H257.09V22.4548H254.539V28.3695C254.539 29.5744 255.047 30.102 256.204 30.102C256.5 30.1011 256.796 30.0836 257.09 30.0496V31.9405C256.673 32.0134 256.25 32.0522 255.826 32.0565C253.242 32.0565 252.214 31.1684 252.214 28.9507V22.4547H250.345V20.5426H252.214V17.6265H254.539Z" fill="white"/>
<path d="M260.263 16H262.566V22.3388H262.75C263.059 21.6763 263.569 21.1231 264.211 20.7543C264.854 20.3856 265.597 20.2194 266.339 20.2782C266.909 20.2479 267.478 20.3409 268.007 20.5505C268.536 20.76 269.011 21.0811 269.398 21.4906C269.785 21.9002 270.075 22.3883 270.247 22.9199C270.419 23.4516 270.469 24.0138 270.393 24.5664V31.9928H268.068V25.1265C268.068 23.2892 267.192 22.3587 265.55 22.3587C265.151 22.3267 264.749 22.3803 264.374 22.5159C263.998 22.6514 263.657 22.8655 263.374 23.1433C263.092 23.421 262.875 23.7557 262.739 24.1239C262.603 24.4921 262.551 24.8849 262.586 25.2749V31.9928H260.263L260.263 16Z" fill="white"/>
<path d="M283.939 28.8871C283.624 29.9384 282.94 30.8477 282.007 31.456C281.075 32.0644 279.953 32.333 278.839 32.2149C278.063 32.2349 277.292 32.0897 276.58 31.7895C275.868 31.4893 275.231 31.0412 274.713 30.4763C274.196 29.9114 273.81 29.2433 273.584 28.5183C273.357 27.7932 273.295 27.0287 273.401 26.2778C273.297 25.5245 273.361 24.7583 273.587 24.0311C273.813 23.304 274.197 22.6327 274.711 22.0629C275.226 21.4931 275.86 21.0379 276.57 20.7283C277.28 20.4187 278.051 20.2618 278.828 20.2683C282.104 20.2683 284.08 22.4549 284.08 26.0669V26.859H275.767V26.9862C275.731 27.4084 275.785 27.8332 275.927 28.2337C276.068 28.6341 276.294 29.0012 276.589 29.3114C276.884 29.6217 277.242 29.8682 277.641 30.0353C278.039 30.2023 278.469 30.2862 278.902 30.2815C279.458 30.3467 280.021 30.2489 280.52 30.0006C281.018 29.7523 281.43 29.3647 281.703 28.887L283.939 28.8871ZM275.767 25.1801H281.713C281.742 24.7941 281.689 24.4063 281.555 24.0418C281.422 23.6772 281.213 23.3439 280.94 23.0633C280.667 22.7826 280.337 22.5609 279.971 22.4123C279.605 22.2637 279.212 22.1915 278.815 22.2004C278.414 22.1954 278.015 22.2691 277.643 22.4172C277.271 22.5652 276.932 22.7845 276.648 23.0622C276.364 23.3399 276.14 23.6704 275.989 24.0341C275.837 24.3979 275.762 24.7875 275.767 25.1801H275.767Z" fill="white"/>
</svg>
