<svg width="329" height="96" viewBox="0 0 329 96" fill="none" xmlns="http://www.w3.org/2000/svg">
<rect width="328.66" height="96" rx="10" fill="black"/>
<path d="M50.7375 46.5645L24.2443 74.6825C24.2468 74.6874 24.2468 74.6949 24.2493 74.6999C25.063 77.753 27.8499 80 31.1594 80C32.4831 80 33.7248 79.6417 34.7898 79.0146L34.8744 78.9649L64.6944 61.7581L50.7375 46.5645Z" fill="#EA4335"/>
<path d="M77.5389 41.7765L77.514 41.7591L64.6395 34.2966L50.1351 47.2035L64.6917 61.7552L77.4966 54.3674C79.7411 53.1531 81.2664 50.7867 81.2664 48.0595C81.2664 45.3472 79.7635 42.9933 77.5389 41.7765Z" fill="#FBBC04"/>
<path d="M24.2439 21.3155C24.0846 21.9027 24 22.5198 24 23.1568V72.8436C24 73.4806 24.0846 74.0977 24.2463 74.6825L51.6477 47.2836L24.2439 21.3155Z" fill="#4285F4"/>
<path d="M50.9331 47.9998L64.6438 34.2916L34.8586 17.0227C33.7762 16.3733 32.5121 16 31.161 16C27.8515 16 25.0596 18.2519 24.2459 21.3076C24.2459 21.3101 24.2434 21.3126 24.2434 21.3151L50.9331 47.9998Z" fill="#34A853"/>
<path d="M120.264 23.9451C120.264 25.9161 119.681 27.4848 118.512 28.6561C117.183 30.0485 115.454 30.7447 113.328 30.7447C111.289 30.7447 109.558 30.0391 108.135 28.6256C106.707 27.2144 105.997 25.4621 105.997 23.3735C105.997 21.2826 106.707 19.5327 108.135 18.1192C109.558 16.7079 111.289 16 113.328 16C114.337 16 115.306 16.1976 116.223 16.5927C117.143 16.9878 117.879 17.5123 118.432 18.1685L117.19 19.4104C116.256 18.2956 114.97 17.7358 113.328 17.7358C111.841 17.7358 110.557 18.2579 109.473 19.3022C108.389 20.3489 107.848 21.7036 107.848 23.3735C107.848 25.0411 108.389 26.3982 109.473 27.4425C110.557 28.4891 111.841 29.0089 113.328 29.0089C114.904 29.0089 116.216 28.4844 117.27 27.4331C117.952 26.7487 118.345 25.7985 118.45 24.5754H113.328V22.8796H120.165C120.231 23.2489 120.264 23.604 120.264 23.9451Z" fill="white"/>
<path d="M120.264 23.9451C120.264 25.9161 119.681 27.4848 118.512 28.6561C117.183 30.0485 115.454 30.7447 113.328 30.7447C111.289 30.7447 109.558 30.0391 108.135 28.6256C106.707 27.2144 105.997 25.4621 105.997 23.3735C105.997 21.2826 106.707 19.5327 108.135 18.1192C109.558 16.7079 111.289 16 113.328 16C114.337 16 115.306 16.1976 116.223 16.5927C117.143 16.9878 117.879 17.5123 118.432 18.1685L117.19 19.4104C116.256 18.2956 114.97 17.7358 113.328 17.7358C111.841 17.7358 110.557 18.2579 109.473 19.3022C108.389 20.3489 107.848 21.7036 107.848 23.3735C107.848 25.0411 108.389 26.3982 109.473 27.4425C110.557 28.4891 111.841 29.0089 113.328 29.0089C114.904 29.0089 116.216 28.4844 117.27 27.4331C117.952 26.7487 118.345 25.7985 118.45 24.5754H113.328V22.8796H120.165C120.231 23.2489 120.264 23.604 120.264 23.9451Z" fill="white"/>
<path d="M131.105 18.0512H124.679V22.5247H130.475V24.2205H124.679V28.694H131.105V30.4298H122.866V16.3178H131.105V18.0512Z" fill="white"/>
<path d="M131.105 18.0512H124.679V22.5247H130.475V24.2205H124.679V28.694H131.105V30.4298H122.866V16.3178H131.105V18.0512Z" fill="white"/>
<path d="M138.751 30.4291H136.938V18.0505H132.996V16.3171H142.693V18.0505H138.751V30.4291Z" fill="white"/>
<path d="M138.751 30.4291H136.938V18.0505H132.996V16.3171H142.693V18.0505H138.751V30.4291Z" fill="white"/>
<path d="M149.71 16.3171H151.523V30.4291H149.71V16.3171Z" fill="white"/>
<path d="M159.566 30.4291H157.752V18.0505H153.81V16.3171H163.508V18.0505H159.566V30.4291Z" fill="white"/>
<path d="M159.566 30.4291H157.752V18.0505H153.81V16.3171H163.508V18.0505H159.566V30.4291Z" fill="white"/>
<path d="M172.857 27.4237C173.901 28.4821 175.178 29.0089 176.69 29.0089C178.203 29.0089 179.48 28.4821 180.524 27.4237C181.569 26.3653 182.093 25.0152 182.093 23.3735C182.093 21.7318 181.569 20.3794 180.524 19.3234C179.48 18.265 178.203 17.7358 176.69 17.7358C175.178 17.7358 173.901 18.265 172.857 19.3234C171.815 20.3794 171.29 21.7318 171.29 23.3735C171.29 25.0152 171.815 26.3653 172.857 27.4237ZM181.865 28.6044C180.477 30.0321 178.753 30.7447 176.69 30.7447C174.628 30.7447 172.904 30.0321 171.518 28.6044C170.131 27.1791 169.439 25.4362 169.439 23.3735C169.439 21.3108 170.131 19.5656 171.518 18.1403C172.904 16.715 174.628 16 176.69 16C178.741 16 180.461 16.7174 181.855 18.1497C183.248 19.5821 183.944 21.3226 183.944 23.3735C183.944 25.4362 183.25 27.1791 181.865 28.6044Z" fill="white"/>
<path d="M172.857 27.4237C173.901 28.4821 175.178 29.0089 176.69 29.0089C178.203 29.0089 179.48 28.4821 180.524 27.4237C181.569 26.3653 182.093 25.0152 182.093 23.3735C182.093 21.7318 181.569 20.3794 180.524 19.3234C179.48 18.265 178.203 17.7358 176.69 17.7358C175.178 17.7358 173.901 18.265 172.857 19.3234C171.815 20.3794 171.29 21.7318 171.29 23.3735C171.29 25.0152 171.815 26.3653 172.857 27.4237ZM181.865 28.6044C180.477 30.0321 178.753 30.7447 176.69 30.7447C174.628 30.7447 172.904 30.0321 171.518 28.6044C170.131 27.1791 169.439 25.4362 169.439 23.3735C169.439 21.3108 170.131 19.5656 171.518 18.1403C172.904 16.715 174.628 16 176.69 16C178.741 16 180.461 16.7174 181.855 18.1497C183.248 19.5821 183.944 21.3226 183.944 23.3735C183.944 25.4362 183.25 27.1791 181.865 28.6044Z" fill="white"/>
<path d="M186.489 30.4291V16.3171H188.695L195.553 27.2939H195.633L195.553 24.575V16.3171H197.369V30.4291H195.476L188.3 18.9184H188.222L188.3 21.6397V30.4291H186.489Z" fill="white"/>
<path d="M186.489 30.4291V16.3171H188.695L195.553 27.2939H195.633L195.553 24.575V16.3171H197.369V30.4291H195.476L188.3 18.9184H188.222L188.3 21.6397V30.4291H186.489Z" fill="white"/>
<path d="M260.249 70.4132H264.638V41.0108H260.249V70.4132ZM299.78 51.6019L294.749 64.3498H294.598L289.377 51.6019H284.649L292.479 69.4183L288.017 79.3297H292.592L304.66 51.6019H299.78ZM274.891 67.0734C273.451 67.0734 271.447 66.356 271.447 64.5755C271.447 62.3082 273.943 61.438 276.1 61.438C278.028 61.438 278.939 61.8543 280.11 62.4211C279.769 65.1447 277.424 67.0734 274.891 67.0734ZM275.42 50.9598C272.242 50.9598 268.95 52.3592 267.59 55.4615L271.485 57.0868C272.318 55.4615 273.868 54.93 275.495 54.93C277.765 54.93 280.072 56.2918 280.11 58.7143V59.0154C279.315 58.5615 277.614 57.8817 275.533 57.8817C271.334 57.8817 267.059 60.1891 267.059 64.5003C267.059 68.4352 270.502 70.9706 274.359 70.9706C277.311 70.9706 278.939 69.6465 279.959 68.0941H280.11V70.3638H284.346V59.0907C284.346 53.8716 280.451 50.9598 275.42 50.9598ZM248.297 55.1816H242.054V45.1033H248.297C251.578 45.1033 253.44 47.8199 253.44 50.1413C253.44 52.4204 251.578 55.1816 248.297 55.1816ZM248.184 41.0108H237.668V70.4132H242.054V59.2741H248.184C253.048 59.2741 257.829 55.7508 257.829 50.1413C257.829 44.5317 253.048 41.0108 248.184 41.0108ZM190.839 67.0781C187.808 67.0781 185.27 64.5403 185.27 61.0546C185.27 57.5313 187.808 54.9535 190.839 54.9535C193.834 54.9535 196.181 57.5313 196.181 61.0546C196.181 64.5403 193.834 67.0781 190.839 67.0781ZM195.88 53.2483H195.727C194.741 52.0746 192.848 51.0139 190.461 51.0139C185.458 51.0139 180.874 55.4074 180.874 61.0546C180.874 66.6618 185.458 71.02 190.461 71.02C192.848 71.02 194.741 69.9593 195.727 68.7457H195.88V70.1874C195.88 74.0141 193.834 76.0604 190.536 76.0604C187.845 76.0604 186.178 74.127 185.496 72.4971L181.669 74.0894C182.767 76.7425 185.686 80 190.536 80C195.689 80 200.048 76.9683 200.048 69.5806V51.6183H195.88V53.2483ZM203.079 70.4132H207.475V41.0084H203.079V70.4132ZM213.953 60.7135C213.84 56.8492 216.947 54.8782 219.181 54.8782C220.926 54.8782 222.403 55.7485 222.895 56.9997L213.953 60.7135ZM227.594 57.3784C226.762 55.144 224.221 51.0139 219.031 51.0139C213.877 51.0139 209.597 55.0664 209.597 61.017C209.597 66.6241 213.84 71.02 219.522 71.02C224.109 71.02 226.762 68.2164 227.86 66.5865L224.45 64.3121C223.314 65.9797 221.759 67.0781 219.522 67.0781C217.288 67.0781 215.695 66.055 214.672 64.0487L228.048 58.5144L227.594 57.3784ZM121.03 54.0832V58.3263H131.183C130.88 60.7136 130.085 62.4564 128.873 63.6677C127.394 65.1471 125.082 66.777 121.03 66.777C114.776 66.777 109.888 61.7367 109.888 55.485C109.888 49.2311 114.776 44.1931 121.03 44.1931C124.402 44.1931 126.865 45.5196 128.683 47.2248L131.677 44.2307C129.137 41.8058 125.766 39.9477 121.03 39.9477C112.466 39.9477 105.266 46.9214 105.266 55.485C105.266 64.0487 112.466 71.02 121.03 71.02C125.651 71.02 129.137 69.503 131.865 66.6618C134.671 63.8582 135.541 59.9186 135.541 56.734C135.541 55.7485 135.466 54.8406 135.313 54.0832H121.03ZM147.087 67.0781C144.056 67.0781 141.44 64.5779 141.44 61.017C141.44 57.416 144.056 54.9535 147.087 54.9535C150.117 54.9535 152.732 57.416 152.732 61.017C152.732 64.5779 150.117 67.0781 147.087 67.0781ZM147.087 51.0139C141.553 51.0139 137.044 55.2193 137.044 61.017C137.044 66.777 141.553 71.02 147.087 71.02C152.619 71.02 157.128 66.777 157.128 61.017C157.128 55.2193 152.619 51.0139 147.087 51.0139ZM168.992 67.0781C165.96 67.0781 163.344 64.5779 163.344 61.017C163.344 57.416 165.96 54.9535 168.992 54.9535C172.023 54.9535 174.636 57.416 174.636 61.017C174.636 64.5779 172.023 67.0781 168.992 67.0781ZM168.992 51.0139C163.46 51.0139 158.951 55.2193 158.951 61.017C158.951 66.777 163.46 71.02 168.992 71.02C174.524 71.02 179.032 66.777 179.032 61.017C179.032 55.2193 174.524 51.0139 168.992 51.0139Z" fill="white"/>
</svg>
